<svg
  width="84"
  height="32"
  viewBox="0 0 84 32"
  fill="none"
  xmlns="http://www.w3.org/2000/svg"
>
  <path
    d="M0.672 26V22.52L6.336 13.28H0.888V9.488H11.808V12.992L6.24 22.208H11.928V26H0.672ZM17.8744 26.192C16.8024 26.192 15.9304 26 15.2584 25.616C14.6024 25.232 14.1224 24.712 13.8184 24.056C13.5144 23.4 13.3624 22.664 13.3624 21.848V13.976H18.4264V21.152C18.4264 21.52 18.5304 21.808 18.7384 22.016C18.9624 22.208 19.2264 22.304 19.5304 22.304C19.8504 22.304 20.1784 22.208 20.5144 22.016L20.7784 25.352C20.4264 25.624 19.9704 25.832 19.4104 25.976C18.8504 26.12 18.3384 26.192 17.8744 26.192ZM15.9064 12.656C15.1704 12.656 14.5384 12.424 14.0104 11.96C13.4824 11.48 13.2184 10.896 13.2184 10.208C13.2184 9.728 13.3464 9.312 13.6024 8.96C13.8584 8.592 14.1944 8.304 14.6104 8.096C15.0264 7.888 15.4584 7.784 15.9064 7.784C16.4024 7.784 16.8504 7.896 17.2504 8.12C17.6664 8.344 17.9944 8.64 18.2344 9.008C18.4904 9.376 18.6184 9.776 18.6184 10.208C18.6184 10.688 18.4824 11.112 18.2104 11.48C17.9544 11.848 17.6184 12.136 17.2024 12.344C16.8024 12.552 16.3704 12.656 15.9064 12.656ZM22.0125 26V13.976H27.0045V16.592C27.3725 15.696 27.9165 15.008 28.6365 14.528C29.3725 14.048 30.2445 13.808 31.2525 13.808C32.8205 13.808 34.0365 14.352 34.9005 15.44C35.7645 16.512 36.1965 18.032 36.1965 20V26H31.1325V19.736C31.1325 18.312 30.5565 17.6 29.4045 17.6C28.7165 17.6 28.1565 17.856 27.7245 18.368C27.2925 18.864 27.0765 19.536 27.0765 20.384V26H22.0125ZM45.6176 30.68C45.0096 30.68 44.4416 30.64 43.9136 30.56C43.3856 30.48 42.9696 30.384 42.6656 30.272L43.0496 26.792C43.3376 26.856 43.6496 26.904 43.9856 26.936C44.3216 26.984 44.6496 27.008 44.9696 27.008C46.0416 27.008 46.8096 26.784 47.2736 26.336C47.7536 25.888 47.9936 25.2 47.9936 24.272V23.144C47.5456 24.024 46.9936 24.672 46.3376 25.088C45.6816 25.504 44.8576 25.712 43.8656 25.712C42.7296 25.712 41.7056 25.456 40.7936 24.944C39.8816 24.416 39.1616 23.704 38.6336 22.808C38.1216 21.896 37.8656 20.856 37.8656 19.688C37.8656 18.52 38.1216 17.496 38.6336 16.616C39.1616 15.736 39.8816 15.048 40.7936 14.552C41.7056 14.056 42.7296 13.808 43.8656 13.808C44.6656 13.808 45.4336 14.024 46.1696 14.456C46.9056 14.872 47.4656 15.552 47.8496 16.496V13.976H52.8896V23.192C52.8896 25.752 52.2576 27.64 50.9936 28.856C49.7296 30.072 47.9376 30.68 45.6176 30.68ZM45.4256 21.92C46.1136 21.92 46.6896 21.704 47.1536 21.272C47.6176 20.84 47.8496 20.32 47.8496 19.712C47.8496 19.104 47.6176 18.6 47.1536 18.2C46.6896 17.8 46.1136 17.6 45.4256 17.6C44.6896 17.6 44.0816 17.808 43.6016 18.224C43.1376 18.64 42.9056 19.152 42.9056 19.76C42.9056 20.352 43.1376 20.864 43.6016 21.296C44.0816 21.712 44.6896 21.92 45.4256 21.92ZM62.7578 22.832C63.2218 22.832 63.7098 22.784 64.2218 22.688C64.7498 22.592 65.2858 22.416 65.8298 22.16L66.4058 25.256C65.8138 25.56 65.1658 25.792 64.4618 25.952C63.7738 26.112 62.9818 26.192 62.0858 26.192C60.4698 26.192 59.1098 25.928 58.0058 25.4C56.9178 24.872 56.0938 24.144 55.5338 23.216C54.9738 22.288 54.6938 21.216 54.6938 20C54.6938 18.752 54.9898 17.664 55.5818 16.736C56.1898 15.808 56.9978 15.088 58.0058 14.576C59.0138 14.064 60.1258 13.808 61.3418 13.808C63.1498 13.808 64.5338 14.376 65.4938 15.512C66.4538 16.632 66.9338 18.232 66.9338 20.312L59.7818 21.224C60.3098 22.296 61.3018 22.832 62.7578 22.832ZM59.3978 19.016L63.1658 18.224C63.1018 17.712 62.9258 17.336 62.6378 17.096C62.3498 16.84 61.9898 16.712 61.5578 16.712C60.9178 16.712 60.4058 16.936 60.0218 17.384C59.6538 17.816 59.4458 18.36 59.3978 19.016ZM68.6063 26V13.976H73.5983V16.592C73.9663 15.696 74.5103 15.008 75.2303 14.528C75.9663 14.048 76.8383 13.808 77.8463 13.808C79.4143 13.808 80.6303 14.352 81.4943 15.44C82.3583 16.512 82.7903 18.032 82.7903 20V26H77.7263V19.736C77.7263 18.312 77.1503 17.6 75.9983 17.6C75.3103 17.6 74.7503 17.856 74.3183 18.368C73.8863 18.864 73.6703 19.536 73.6703 20.384V26H68.6063Z"
    fill="#F4F4F5"
  />
</svg>
